<svg xmlns="http://www.w3.org/2000/svg" width="17" height="11.966" viewBox="0 0 17 11.966">
  <g id="Group_932" data-name="Group 932" transform="translate(-5.016 -20.744)">
    <path id="Path_506" data-name="Path 506" d="M7.044,27.22a.791.791,0,0,1,.559-.969l12.989-3.48a.791.791,0,0,1,.969.559L23.2,29.443a.791.791,0,0,1-.559.969L9.65,33.892a.791.791,0,0,1-.969-.559Z" transform="translate(-1.605 -1.605)" fill="#80a17d"/>
    <path id="Path_507" data-name="Path 507" d="M5.9,24.265l12.989-3.48a1.186,1.186,0,0,1,1.453.839l1.638,6.112a1.186,1.186,0,0,1-.839,1.453L8.148,32.669a1.186,1.186,0,0,1-1.453-.839L5.057,25.718A1.186,1.186,0,0,1,5.9,24.265Zm.1.382a.791.791,0,0,0-.559.969l1.638,6.112a.791.791,0,0,0,.969.559l12.989-3.48a.791.791,0,0,0,.559-.969l-1.638-6.112a.791.791,0,0,0-.969-.559Z" fill="#446548" fill-rule="evenodd"/>
    <path id="Path_508" data-name="Path 508" d="M7.044,36.854a.791.791,0,0,1,.559-.969l4.2-1.126a.2.2,0,0,1,.1.382l-4.2,1.126a.4.4,0,0,0-.28.484l.563,2.1a.2.2,0,1,1-.382.1Z" transform="translate(-1.605 -11.239)" fill="#9dc09a" fill-rule="evenodd"/>
    <path id="Path_509" data-name="Path 509" d="M10.838,27.829l-1.528.409a.4.4,0,0,0-.28.484l.386,1.44a.354.354,0,0,0,.542.219,2.724,2.724,0,0,0,1.327-2.266A.342.342,0,0,0,10.838,27.829Zm11.775,4.215,1.528-.409a.4.4,0,0,0,.28-.484l-.386-1.44a.354.354,0,0,0-.542-.219,2.724,2.724,0,0,0-1.327,2.266A.342.342,0,0,0,22.613,32.044ZM10.259,33.307l.409,1.528a.4.4,0,0,0,.484.28l1.44-.386a.354.354,0,0,0,.219-.542,2.724,2.724,0,0,0-2.266-1.327A.342.342,0,0,0,10.259,33.307Zm12.934-6.741-.409-1.528a.4.4,0,0,0-.484-.28l-1.44.386a.354.354,0,0,0-.219.542,2.724,2.724,0,0,0,2.266,1.327A.342.342,0,0,0,23.193,26.566Zm-3.984,2.705a2.571,2.571,0,1,1-3.148-1.818A2.571,2.571,0,0,1,19.209,29.271Z" transform="translate(-3.21 -3.21)" fill="#6b8e67"/>
    <path id="Path_510" data-name="Path 510" d="M38.828,38.2A2.966,2.966,0,1,1,35.2,36.1,2.966,2.966,0,0,1,38.828,38.2Zm-2.2,3.251a2.571,2.571,0,1,0-3.148-1.818A2.571,2.571,0,0,0,36.629,41.446Z" transform="translate(-22.447 -12.236)" fill="#446548" fill-rule="evenodd"/>
    <path id="Path_511" data-name="Path 511" d="M37.005,38.8a2.175,2.175,0,0,0-1.538,2.664.2.2,0,0,1-.382.1A2.571,2.571,0,0,1,36.9,38.415a.2.2,0,0,1,.1.382Z" transform="translate(-24.052 -14.172)" fill="#80b27b" fill-rule="evenodd"/>
    <path id="Path_512" data-name="Path 512" d="M41.967,43.838a1.335,1.335,0,0,1,.632-.35,1.537,1.537,0,0,1,.585-.058,1.235,1.235,0,0,1,.481.169.3.3,0,0,1-.3.514.648.648,0,0,0-.255-.094.959.959,0,0,0-.361.042.756.756,0,0,0-.351.182.262.262,0,0,0,.11.409.756.756,0,0,0,.4-.018,1.335,1.335,0,0,1,.722-.013A.855.855,0,0,1,44,46a1.493,1.493,0,0,1-1.713.23.3.3,0,1,1,.326-.5.922.922,0,0,0,.952-.139.262.262,0,0,0-.11-.409.756.756,0,0,0-.4.018,1.335,1.335,0,0,1-.722.013.854.854,0,0,1-.37-1.381Z" transform="translate(-29.466 -18.193)" fill="#446548" fill-rule="evenodd"/>
    <path id="Path_513" data-name="Path 513" d="M44.39,40.816a.3.3,0,0,1,.363.21l.154.573a.3.3,0,1,1-.573.154l-.154-.573A.3.3,0,0,1,44.39,40.816Zm.768,2.865a.3.3,0,0,1,.363.21l.154.573a.3.3,0,0,1-.573.154l-.154-.573A.3.3,0,0,1,45.158,43.682Z" transform="translate(-31.412 -16.095)" fill="#446548" fill-rule="evenodd"/>
    <path id="Path_514" data-name="Path 514" d="M10,31.791A.791.791,0,0,1,10.791,31H24.238a.791.791,0,0,1,.791.791v6.328a.791.791,0,0,1-.791.791H10.791A.791.791,0,0,1,10,38.119Z" transform="translate(-3.998 -8.228)" fill="#80a17d"/>
    <path id="Path_515" data-name="Path 515" d="M9.186,29H22.633a1.186,1.186,0,0,1,1.186,1.186v6.328A1.186,1.186,0,0,1,22.633,37.7H9.186A1.186,1.186,0,0,1,8,36.514V30.186A1.186,1.186,0,0,1,9.186,29Zm0,.4a.791.791,0,0,0-.791.791v6.328a.791.791,0,0,0,.791.791H22.633a.791.791,0,0,0,.791-.791V30.186a.791.791,0,0,0-.791-.791Z" transform="translate(-2.394 -6.624)" fill="#446548" fill-rule="evenodd"/>
    <path id="Path_516" data-name="Path 516" d="M10,31.791A.791.791,0,0,1,10.791,31h4.35a.2.2,0,1,1,0,.4h-4.35a.4.4,0,0,0-.4.4v2.175a.2.2,0,0,1-.4,0Z" transform="translate(-3.998 -8.228)" fill="#9dc09a" fill-rule="evenodd"/>
    <path id="Path_517" data-name="Path 517" d="M13.977,33H12.4a.4.4,0,0,0-.4.4v1.491a.354.354,0,0,0,.467.352,2.724,2.724,0,0,0,1.868-1.845A.342.342,0,0,0,13.977,33ZM24.26,40.119h1.582a.4.4,0,0,0,.4-.4V38.232a.354.354,0,0,0-.467-.352A2.724,2.724,0,0,0,23.9,39.726.342.342,0,0,0,24.26,40.119ZM12,38.141v1.582a.4.4,0,0,0,.4.4h1.491a.354.354,0,0,0,.352-.467,2.724,2.724,0,0,0-1.845-1.868A.342.342,0,0,0,12,38.141Zm14.238-3.164V33.4a.4.4,0,0,0-.4-.4H24.351a.354.354,0,0,0-.352.467,2.724,2.724,0,0,0,1.845,1.868A.342.342,0,0,0,26.238,34.977ZM21.69,36.559a2.571,2.571,0,1,1-2.571-2.571A2.571,2.571,0,0,1,21.69,36.559Z" transform="translate(-5.603 -9.833)" fill="#6b8e67"/>
    <path id="Path_518" data-name="Path 518" d="M38.932,38.966A2.966,2.966,0,1,1,35.966,36,2.966,2.966,0,0,1,38.932,38.966Zm-2.966,2.571A2.571,2.571,0,1,0,33.4,38.966,2.571,2.571,0,0,0,35.966,41.537Z" transform="translate(-22.45 -12.239)" fill="#446548" fill-rule="evenodd"/>
    <path id="Path_519" data-name="Path 519" d="M37.571,38.4A2.175,2.175,0,0,0,35.4,40.571a.2.2,0,1,1-.4,0A2.571,2.571,0,0,1,37.571,38a.2.2,0,1,1,0,.4Z" transform="translate(-24.055 -13.844)" fill="#80b27b" fill-rule="evenodd"/>
    <path id="Path_520" data-name="Path 520" d="M42.887,43.675a1.335,1.335,0,0,1,.7-.175,1.537,1.537,0,0,1,.58.1,1.235,1.235,0,0,1,.421.288.3.3,0,0,1-.419.419.648.648,0,0,0-.222-.157.958.958,0,0,0-.359-.053.756.756,0,0,0-.387.085.262.262,0,0,0,0,.424.756.756,0,0,0,.387.085,1.335,1.335,0,0,1,.7.175.854.854,0,0,1,0,1.43,1.493,1.493,0,0,1-1.714-.221.3.3,0,1,1,.443-.394.922.922,0,0,0,.956.112.262.262,0,0,0,0-.424.756.756,0,0,0-.387-.085,1.335,1.335,0,0,1-.7-.175.854.854,0,0,1,0-1.43Z" transform="translate(-30.072 -18.256)" fill="#446548" fill-rule="evenodd"/>
    <path id="Path_521" data-name="Path 521" d="M46.8,40.5a.3.3,0,0,1,.3.3v.593a.3.3,0,1,1-.593,0V40.8A.3.3,0,0,1,46.8,40.5Zm0,2.966a.3.3,0,0,1,.3.3v.593a.3.3,0,1,1-.593,0v-.593A.3.3,0,0,1,46.8,43.466Z" transform="translate(-33.281 -15.849)" fill="#446548" fill-rule="evenodd"/>
  </g>
</svg>
