<svg xmlns="http://www.w3.org/2000/svg" width="15.176" height="13.902" viewBox="0 0 15.176 13.902">
  <g id="Group_933" data-name="Group 933" transform="translate(-12.5 -22.643)">
    <path id="Path_522" data-name="Path 522" d="M45.558,152.681c1.473,1.031.866.168,2.223.625s1.258,1.021,0,1.858-3.067-1.19-3.877-2S44.085,151.65,45.558,152.681Z" transform="translate(-29.163 -121.39)" fill="#f2b474" fill-rule="evenodd"/>
    <path id="Path_523" data-name="Path 523" d="M44.929,23.555a3.791,3.791,0,0,1,4.918-.012c1.229,1.2,1.229,3.6,0,6.008-.861,1.8-3.074,3.6-4.918,4.806-1.844-1.2-4.057-3-4.918-4.806-1.229-2.4-1.229-4.806,0-6.008A3.791,3.791,0,0,1,44.929,23.555Z" transform="translate(-24.919)" fill="#fe7c7c" fill-rule="evenodd"/>
    <path id="Path_524" data-name="Path 524" d="M27.676,137.487c-2.393-.013-7.672-.409-10.818-1.552s-4.711-3.394-4.29-3.958,2.016.625,3.431,1.365a4.547,4.547,0,0,0,3,.748,3.636,3.636,0,0,0,1.641-.554l.006,0s-.748-1.01-1.065-1.315c-.577-.555-1.231-1.026-.863-1.641s1.914.135,2.731.792c.681.548,2.545,1.14,3.678,2.208a4.193,4.193,0,0,0,2.548.578Z" transform="translate(0 -100.942)" fill="#fed29d" fill-rule="evenodd"/>
  </g>
</svg>
