<svg id="search" xmlns="http://www.w3.org/2000/svg" width="20" height="20" viewBox="0 0 20 20">
  <path id="Path_244" data-name="Path 244" d="M4.509,145.069,3.8,147.712l-2.588.055a10.19,10.19,0,0,1-.075-9.5h0l2.3.422,1.009,2.291a6.071,6.071,0,0,0,.057,4.087Z" transform="translate(0 -132.949)" fill="#fbbb00"/>
  <path id="Path_245" data-name="Path 245" d="M271.4,208.176a10.169,10.169,0,0,1-3.626,9.833h0l-2.9-.148-.411-2.564a6.063,6.063,0,0,0,2.609-3.1h-5.44v-4.024H271.4Z" transform="translate(-251.577 -200.249)" fill="#518ef8"/>
  <path id="Path_246" data-name="Path 246" d="M45.837,315.219h0a10.176,10.176,0,0,1-15.329-3.112l3.3-2.7a6.05,6.05,0,0,0,8.718,3.1Z" transform="translate(-29.297 -297.459)" fill="#28b446"/>
  <path id="Path_247" data-name="Path 247" d="M44.152,2.342l-3.3,2.7a6.049,6.049,0,0,0-8.918,3.168L28.625,5.494h0A10.175,10.175,0,0,1,44.152,2.342Z" transform="translate(-27.487)" fill="#f14336"/>
</svg>
