<svg id="Group_898" data-name="Group 898" xmlns="http://www.w3.org/2000/svg" width="47.198" height="71.336" viewBox="0 0 47.198 71.336">
  <path id="Path_442" data-name="Path 442" d="M1565,25140h38.8v38.41a1.62,1.62,0,0,1-1.617,1.617h-35.57a1.62,1.62,0,0,1-1.616-1.617Z" transform="translate(-1563.051 -25108.691)" fill="#4fb379" fill-rule="evenodd"/>
  <path id="Path_443" data-name="Path 443" d="M1603.8,28969v.955H1565V28969Z" transform="translate(-1563.051 -28932.922)" fill="#5da668" fill-rule="evenodd"/>
  <path id="Path_444" data-name="Path 444" d="M210,28831l1.688,3.969v-3.8Z" transform="translate(-209.738 -28795.09)" fill="#5da668" fill-rule="evenodd"/>
  <path id="Path_445" data-name="Path 445" d="M32723.688,28831l-1.689,3.969v-3.8Z" transform="translate(-32681.246 -28795.09)" fill="#5da668" fill-rule="evenodd"/>
  <path id="Path_446" data-name="Path 446" d="M.732,25140H41.97a.732.732,0,0,1,.731.73v3.3a.73.73,0,0,1-.731.73H.732a.73.73,0,0,1-.732-.73v-3.3A.733.733,0,0,1,.732,25140Z" transform="translate(0 -25108.691)" fill="#4fb379" fill-rule="evenodd"/>
  <path id="Path_447" data-name="Path 447" d="M1565,7629.834h38.8l-2.544-19.29a2.688,2.688,0,0,0-2.544-2.544h-28.626a2.69,2.69,0,0,0-2.544,2.544Z" transform="translate(-1563.051 -7598.525)" fill="#67bb87" fill-rule="evenodd"/>
  <path id="Path_448" data-name="Path 448" d="M5113,10433.848h29.965l-1.965-14a2.017,2.017,0,0,0-1.964-1.847H5116.93a2.019,2.019,0,0,0-1.965,1.847Z" transform="translate(-5106.632 -10405.025)" fill="#4fb379" fill-rule="evenodd"/>
  <path id="Path_449" data-name="Path 449" d="M5191,28969h1.59v4.568H5191Z" transform="translate(-5184.535 -28932.922)" fill="#4fb379" fill-rule="evenodd"/>
  <path id="Path_450" data-name="Path 450" d="M6468,28969l.855.955-.855,3.613Z" transform="translate(-6459.944 -28932.922)" fill="#5da668" fill-rule="evenodd"/>
  <path id="Path_451" data-name="Path 451" d="M27820.59,28969H27819v4.568h1.59Z" transform="translate(-27784.354 -28932.922)" fill="#4fb379" fill-rule="evenodd"/>
  <path id="Path_452" data-name="Path 452" d="M27132.855,28969l-.855.955.855,3.613Z" transform="translate(-27098.209 -28932.922)" fill="#5da668" fill-rule="evenodd"/>
  <path id="Path_453" data-name="Path 453" d="M16506.59,28969H16505v4.568h1.59Z" transform="translate(-16484.445 -28932.922)" fill="#4fb379" fill-rule="evenodd"/>
  <path id="Path_454" data-name="Path 454" d="M5117.618,10420.391c-1.406,1.663-3,5.415-4.26,13.457H5113l1.965-14a2.019,2.019,0,0,1,1.965-1.847h22.156l.05,0,.05,0,.048,0,.049.006.047.006.048.009.047.009.046.01.046.011.045.013.043.012.045.014h0l.043.017h0l.042.017h0l.042.017.042.019h0l.041.02.04.019.04.022.04.021h0l.038.024h0l.039.023h0l.038.025h0l.036.024h0l.036.026h0l.036.027h0l.035.028h0l.034.027v0l.034.029h0l.033.03h0l.032.031h0l.063.063v0l.029.031v0l.03.033h0c.029.034.056.07.083.105h0l.027.037h0l.026.038h0c.017.024.032.05.048.075h0l.024.039h0l.022.04h0l.021.039h0l.023.041h0l.02.042h0l.02.04h0l.019.043h0l.017.042h0l.018.042v0l.016.043h0l.017.043h0l.013.044h0l.015.044h0l.012.046h0l.013.044h0l.011.047.01.046h0l.01.046h0l.009.045.009.049.006.047,1.965,14h-.357c-1.264-8.042-2.854-11.794-4.26-13.457Zm10.366,27.3a7.377,7.377,0,1,1-7.378,7.377A7.377,7.377,0,0,1,5127.983,10447.692Z" transform="translate(-5106.632 -10405.025)" fill="#5da668" fill-rule="evenodd"/>
  <path id="Path_455" data-name="Path 455" d="M11626.88,34659a6.881,6.881,0,1,1-6.88,6.879A6.878,6.878,0,0,1,11626.88,34659Z" transform="translate(-11605.528 -34615.836)" fill="#ffe356" fill-rule="evenodd"/>
  <path id="Path_456" data-name="Path 456" d="M13072.271,38241.68l2.5-.68.682,2.5-.578-.332-1.116,1.93h0c-.847,1.484.23,2.461,1.912,2.461h-2.238a2.178,2.178,0,0,1-1.885-3.266l1.315-2.273Z" transform="translate(-13054.971 -38193.375)" fill="#56bf5d" fill-rule="evenodd"/>
  <path id="Path_457" data-name="Path 457" d="M16093.842,39468.547l-1.842-1.828,1.827-1.84,0,.7h2.042c1.7.137,1.929-1.293,1.185-2.582l1.026,1.777a2.178,2.178,0,0,1-1.884,3.266h-2.358Z" transform="translate(-16071.959 -39413.855)" fill="#56bf5d" fill-rule="evenodd"/>
  <path id="Path_458" data-name="Path 458" d="M14948.623,36001.09l1.119,1.938.613-.355-.661,2.508-2.508-.664.554-.32-1-1.738c-1.214-2.2-2.684.027-2.739.113l.855-1.48a2.173,2.173,0,0,1,3.768,0Z" transform="translate(-14925.389 -35955.164)" fill="#56bf5d" fill-rule="evenodd"/>
  <path id="Path_459" data-name="Path 459" d="M14943,37199.012s1.5-2.355,2.74-.117" transform="translate(-14924.391 -37151.605)" fill="none" fill-rule="evenodd"/>
  <path id="Path_460" data-name="Path 460" d="M13968.078,12794.9l-1.078-2.814,1.63-.955a31.217,31.217,0,0,1,.676,3.48.636.636,0,0,1-1.228.289Zm1.563-1.237-.689-2.936,1.745-.727a31.38,31.38,0,0,1,.2,3.54.637.637,0,0,1-1.256.122Z" transform="translate(-13949.605 -12774.072)" fill="#f0ba7d" fill-rule="evenodd"/>
  <path id="Path_461" data-name="Path 461" d="M12534.189,0l-13.41,6.546c-3.545,1.594-7.1,3.374-10.625,5.044a1.293,1.293,0,0,0-.537.482l-3.332,5.021a1.122,1.122,0,0,0-.168.57l-.3,3.757c0,.01,0,.017,0,.029-.211,1.695,1.125,1.186,1.238.758l.955-3.577a1.227,1.227,0,0,1,.605-.782l6.3-3.533a.637.637,0,0,1,.938.671l-.686,3.656a.592.592,0,0,0,0,.242c.232,1.161,1.516.44,1.875-.425a.413.413,0,0,1,.031-.064l3-5.41a1.22,1.22,0,0,1,.723-.594l16.625-5.351Z" transform="translate(-12490.218)" fill="#fed298" fill-rule="evenodd"/>
  <path id="Path_462" data-name="Path 462" d="M15439.381,17067.15l1.586-1.15,2.658.814,1.107,2.365-.3,1.982-1.374,1.117-1.292-.908-1.644.871-2.03-1.59-1.089.3.425-2.486,1.329-.715,1.181.438Z" transform="translate(-15417.773 -17044.746)" fill="#fefefe" fill-rule="evenodd"/>
  <path id="Path_463" data-name="Path 463" d="M17506.217,14702.15a.149.149,0,1,1,.3,0v1.736a.149.149,0,1,1-.3,0Zm-2.217.814a.15.15,0,0,1,.3,0v1.735a.15.15,0,0,1-.3,0Z" transform="translate(-17482.201 -14683.69)" fill="#fefefe"/>
  <path id="Path_464" data-name="Path 464" d="M15443.182,17611l.807,2.709-1.928,1.135-.915-1.594-.814.223-1.192-.242,1.232,1.672-1.572.16-.715-.937-.865-.137-.22,1.281,1.089-.3,2.03,1.59,1.644-.871,1.292.91,1.374-1.121.3-1.98-1.107-2.363Z" transform="translate(-15417.773 -17589.068)" fill="#ecf0f1" fill-rule="evenodd"/>
</svg>
