<svg xmlns="http://www.w3.org/2000/svg" xmlns:xlink="http://www.w3.org/1999/xlink" width="16" height="16" viewBox="0 0 16 16">
  <defs>
    <clipPath id="clip-path">
      <rect id="Rectangle_125" data-name="Rectangle 125" width="16" height="16" transform="translate(-0.264 -0.153)" fill="#686874" stroke="#707070" stroke-width="1"/>
    </clipPath>
  </defs>
  <g id="Mask_Group_1" data-name="Mask Group 1" transform="translate(0.264 0.153)" clip-path="url(#clip-path)">
    <g id="_6271792371635699429" data-name="6271792371635699429" transform="translate(0 -0.014)">
      <path id="Path_32" data-name="Path 32" d="M8.488,7.767,9.6,6.654,5.238,2.291A.787.787,0,1,0,4.125,3.4Z" transform="translate(-1.633 -1.121)" fill="#686874"/>
      <path id="Path_33" data-name="Path 33" d="M8.969,9.72l7.192-7.192a1.049,1.049,0,0,0,0-1.483,1.073,1.073,0,0,0-1.483,0L9.071,6.652,7.958,7.764l-.472.472L7.3,8.051a1.836,1.836,0,0,0-2.6,0L3.667,9.088a4.541,4.541,0,0,1-2.7,1.3.262.262,0,0,0-.157.446l3.524,3.524a.264.264,0,0,0,.134.072,2.019,2.019,0,0,0,.979-.045,2.2,2.2,0,0,0-.075.935.262.262,0,0,0,.074.151l.927.927a.262.262,0,0,0,.446-.157,4.543,4.543,0,0,1,1.3-2.7L9.155,12.5a1.838,1.838,0,0,0,0-2.6Zm6.079-8.3a.537.537,0,0,1,.742,0,.525.525,0,0,1,0,.742L8.6,9.349l-.742-.742Zm-7.3,11.753a5.072,5.072,0,0,0-1.364,2.5l-.5-.5a1.673,1.673,0,0,1,.336-1.154l.179-.236A.262.262,0,0,0,6,13.43L5.93,13.5a1.495,1.495,0,0,1-1.284.424L4.015,13.3A2.963,2.963,0,0,0,5.447,12.5l.741-.742a.262.262,0,0,0-.371-.371l-.742.742a2.441,2.441,0,0,1-1.521.705l-.715-.717a2.576,2.576,0,0,0,1.495-.731.262.262,0,1,0-.372-.37,2.049,2.049,0,0,1-1.586.6l-.045,0-.789-.789a5.067,5.067,0,0,0,2.5-1.364l.852-.852.742.742L5.075,9.9a.262.262,0,1,0,.371.371L6,9.719l1.669,1.669-.557.556a.262.262,0,0,0,.371.371l.556-.556.557.556Z" transform="translate(-0.733 -0.747)" fill="#686874"/>
      <path id="Path_34" data-name="Path 34" d="M18.479,11.824a1.311,1.311,0,0,0-1.854,0l-.927.927-1.2-1.2-1.113,1.113,1.2,1.2-.927.927a1.311,1.311,0,0,0,0,1.854l1.483,1.484a.262.262,0,0,0,.371,0l4.451-4.451a.262.262,0,0,0,0-.371Zm.557,2.04-.557-.557a.262.262,0,0,0-.371.371l.557.557-.371.371-.556-.557a.262.262,0,0,0-.371.371l.556.557-.371.371L17,14.791a.262.262,0,1,0-.371.371l.556.557-.371.371-.556-.556a.262.262,0,0,0-.371.371l.556.556-.371.371-.557-.557a.262.262,0,0,0-.371.371l.557.557-.371.371L14.214,16.46l4.08-4.08,1.113,1.113Z" transform="translate(-4.303 -3.792)" fill="#686874"/>
    </g>
  </g>
</svg>
