<svg id="location" xmlns="http://www.w3.org/2000/svg" width="18.214" height="18.214" viewBox="0 0 18.214 18.214">
  <path id="Vector" d="M4.736,2.368A2.368,2.368,0,1,1,2.368,0,2.368,2.368,0,0,1,4.736,2.368Z" transform="translate(6.739 5.457)" fill="none" stroke="#686874" stroke-width="1.5"/>
  <path id="Vector-2" data-name="Vector" d="M.184,4.925c1.5-6.572,11.232-6.565,12.719.008.873,3.855-1.525,7.119-3.628,9.137a3.941,3.941,0,0,1-5.472,0C1.71,12.052-.689,8.781.184,4.925Z" transform="translate(2.563 1.518)" fill="none" stroke="#686874" stroke-width="1.5"/>
  <g id="Vector-3" data-name="Vector" transform="translate(18.214 18.214) rotate(180)" fill="none" opacity="0">
    <path d="M0,0H18.214V18.214H0Z" stroke="none"/>
    <path d="M 1.000001907348633 1.000001907348633 L 1.000001907348633 17.21390151977539 L 17.21390151977539 17.21390151977539 L 17.21390151977539 1.000001907348633 L 1.000001907348633 1.000001907348633 M 1.9073486328125e-06 1.9073486328125e-06 L 18.21390151977539 1.9073486328125e-06 L 18.21390151977539 18.21390151977539 L 1.9073486328125e-06 18.21390151977539 L 1.9073486328125e-06 1.9073486328125e-06 Z" stroke="none" fill="#707070"/>
  </g>
</svg>
