<svg xmlns="http://www.w3.org/2000/svg" width="17.142" height="18.163" viewBox="0 0 17.142 18.163">
  <path id="Path_505" data-name="Path 505" d="M14.608,10.015a.323.323,0,0,0-.227-.085.36.36,0,0,0-.256.114,1.914,1.914,0,0,0-.455,1.336l.028.654a2.81,2.81,0,0,1-.426,1.507l-.284.426a2.073,2.073,0,0,0,.313,2.615l1.706,1.592h.028L15.006,18a.637.637,0,0,1,.171-.483l2.957-3.156a.6.6,0,0,1,.426-.2l.483-.028Zm2.274,4.378-1.137,1.734a1.192,1.192,0,0,1-.995.54,1.139,1.139,0,0,1-.824-.341,1.206,1.206,0,0,1-.227-1.45l1.023-1.848a1.175,1.175,0,0,1,1.052-.625,1.139,1.139,0,0,1,.824.341l.114.114A1.208,1.208,0,0,1,16.882,14.393Zm-.711-1.222a.561.561,0,0,0-.4-.171.537.537,0,0,0-.512.313l-1.023,1.848a.564.564,0,0,0,.114.711.6.6,0,0,0,.91-.114L16.4,14.023a.6.6,0,0,0-.085-.768ZM13.5,9.9,3.122.093a.354.354,0,0,0-.483.028L1.9.889v.654l.768.2a.377.377,0,0,1,.227.313v.768l.739.2a.308.308,0,0,1,.227.313L3.833,4.1l.768.2a.308.308,0,0,1,.227.313L4.8,5.381l.768.2a.308.308,0,0,1,.227.313l-.028.768.768.2a.308.308,0,0,1,.227.313v.711l.768.2a.308.308,0,0,1,.227.313l-.028.768.768.2a.308.308,0,0,1,.227.313l-.028.768.768.171a.308.308,0,0,1,.227.313v.739l.768.2a.308.308,0,0,1,.227.313l-.028.768.739.2a.3.3,0,0,1,.227.284v.625l.455.483a2.776,2.776,0,0,1,.37-.853l.284-.426a2.075,2.075,0,0,0,.341-1.166l-.028-.654A2.635,2.635,0,0,1,13.5,9.9Z" transform="translate(-1.9 -0.011)" fill="#686874"/>
</svg>
