<svg id="Group_902" data-name="Group 902" xmlns="http://www.w3.org/2000/svg" width="47.519" height="52.998" viewBox="0 0 47.519 52.998">
  <path id="Path_491" data-name="Path 491" d="M29.113,16.282A118.955,118.955,0,0,1,46.13,17.889a3.285,3.285,0,0,1,2.617,2.41,53.894,53.894,0,0,1,.025,29.53A3.278,3.278,0,0,1,46.2,52.164c-.671.116-1.342.224-2,.331-.9.141-1.805.265-2.708.389a112.961,112.961,0,0,1-28.81-.041c-.911-.116-1.83-.248-2.741-.381-.638-.091-1.267-.19-1.9-.3a3.324,3.324,0,0,1-2.666-2.41,53.971,53.971,0,0,1-.017-29.53A3.3,3.3,0,0,1,7.93,17.881q5.2-.907,10.442-1.3A96.031,96.031,0,0,1,29.113,16.282Z" transform="translate(-3.303 -2.792)" fill="#4fb379"/>
  <path id="Path_492" data-name="Path 492" d="M39.356,48.465c-1.35.273-2.708.513-4.058.712a70.94,70.94,0,0,1-7.122.679c-2.36.108-4.737.1-7.113-.025s-4.745-.348-7.122-.687c-1.35-.2-2.708-.422-4.058-.687a42.457,42.457,0,0,1,0-24.86c1.35-.273,2.7-.513,4.058-.712a68.576,68.576,0,0,1,7.122-.671c2.36-.108,4.737-.108,7.113.017s4.737.356,7.122.687c1.35.19,2.7.422,4.058.687A42.457,42.457,0,0,1,39.356,48.465Z" transform="translate(-4.115 -3.805)" fill="#ecf0f1"/>
  <path id="Path_493" data-name="Path 493" d="M56.2,28.037a2.277,2.277,0,1,1-2.277-2.277A2.276,2.276,0,0,1,56.2,28.037Z" transform="translate(-11.614 -4.428)" fill="#006d3a"/>
  <path id="Path_494" data-name="Path 494" d="M53.17,29.268h0a.475.475,0,0,1,0-.679l1.308-1.308a.475.475,0,0,1,.679,0h0a.475.475,0,0,1,0,.679l-1.308,1.308A.475.475,0,0,1,53.17,29.268Z" transform="translate(-11.851 -4.665)" fill="#f5c140"/>
  <path id="Path_495" data-name="Path 495" d="M53.927,35.37a2.277,2.277,0,1,1-2.277,2.277A2.276,2.276,0,0,1,53.927,35.37Z" transform="translate(-11.614 -6.08)" fill="#006d3a"/>
  <path id="Path_496" data-name="Path 496" d="M55.158,38.878h0a.475.475,0,0,1-.679,0L53.17,37.569a.475.475,0,0,1,0-.679h0a.475.475,0,0,1,.679,0L55.158,38.2A.49.49,0,0,1,55.158,38.878Z" transform="translate(-11.851 -6.317)" fill="#f5c140"/>
  <g id="Group_901" data-name="Group 901" transform="translate(5.119)">
    <path id="Path_497" data-name="Path 497" d="M45.079,63.082,42.1,60.448c.182-.017.356-.041.53-.066.9-.116,1.805-.248,2.708-.381l.29-.05.82,2.194A.854.854,0,0,1,45.079,63.082ZM14.357,60.407l-3.031,2.667a.852.852,0,0,1-1.358-.944L10.8,59.91c.1.025.19.033.29.05.919.141,1.83.265,2.741.373C14.009,60.365,14.174,60.382,14.357,60.407Z" transform="translate(-9.557 -10.298)" fill="#006d3a"/>
    <path id="Path_498" data-name="Path 498" d="M30.66,10.493,49.889.961a.79.79,0,0,1,1.135.505.781.781,0,0,1-.364.894l-18.367,11.1Z" transform="translate(-13.125 -0.15)" fill="#e4e6ed"/>
    <path id="Path_499" data-name="Path 499" d="M56.094.985A1.127,1.127,0,1,1,54.835.008,1.138,1.138,0,0,1,56.094.985Z" transform="translate(-17.111 0)" fill="#fed298"/>
    <path id="Path_500" data-name="Path 500" d="M10.781,5.005a.873.873,0,0,1-.282-.977.885.885,0,0,1,.828-.588.9.9,0,0,1,.5.157l11.743,7.809L21.778,13.8Z" transform="translate(-9.65 -0.591)" fill="#e4e6ed"/>
    <path id="Path_501" data-name="Path 501" d="M9.539,3.68a1.566,1.566,0,1,0,1.921-1.1A1.568,1.568,0,0,0,9.539,3.68Z" transform="translate(-9.485 -0.434)" fill="#fed298"/>
    <path id="Path_502" data-name="Path 502" d="M32.239,15.541q-5.391-.112-10.749.29a5.727,5.727,0,0,1,10.749-.29Z" transform="translate(-11.548 -2.051)" fill="#ffe356"/>
  </g>
</svg>
