<svg xmlns="http://www.w3.org/2000/svg" width="19.982" height="19.982" viewBox="0 0 19.982 19.982">
  <g id="vuesax_linear_document-like" data-name="vuesax/linear/document-like" transform="translate(-556 -252)">
    <g id="document-like" transform="translate(556 252)">
      <path id="Vector" d="M14.987,4.163v8.326c0,2.5-1.249,4.163-4.163,4.163H4.163C1.249,16.652,0,14.987,0,12.489V4.163C0,1.665,1.249,0,4.163,0h6.661C13.738,0,14.987,1.665,14.987,4.163Z" transform="translate(2.498 1.665)" fill="none" stroke="#686874" stroke-linecap="round" stroke-linejoin="round" stroke-width="1.5"/>
      <path id="Vector-2" data-name="Vector" d="M0,0V1.665A1.67,1.67,0,0,0,1.665,3.33H3.33" transform="translate(12.073 3.747)" fill="none" stroke="#686874" stroke-linecap="round" stroke-linejoin="round" stroke-width="1.5"/>
      <path id="Vector-3" data-name="Vector" d="M.095,2.269A1.724,1.724,0,0,1,1.036.063,1.236,1.236,0,0,1,2.418.5,1.207,1.207,0,0,1,3.8.063a1.728,1.728,0,0,1,.949,2.206A3.254,3.254,0,0,1,2.418,4.334,3.287,3.287,0,0,1,.095,2.269Z" transform="translate(6.133 10.628)" fill="none" stroke="#686874" stroke-linecap="round" stroke-linejoin="round" stroke-width="1.5"/>
      <path id="Vector-4" data-name="Vector" d="M0,0H19.982V19.982H0Z" fill="none" opacity="0"/>
    </g>
  </g>
</svg>
