<svg id="Group_900" data-name="Group 900" xmlns="http://www.w3.org/2000/svg" width="49.551" height="52.999" viewBox="0 0 49.551 52.999">
  <path id="Path_479" data-name="Path 479" d="M54.581,29.871V35H51.162V29.871a6.838,6.838,0,1,0-13.673,0V35H34.066V29.871a10.258,10.258,0,1,1,20.515,0Z" transform="translate(-7.595 -3.371)" fill="#dcdcdc"/>
  <path id="Path_480" data-name="Path 480" d="M16.485,2.592V26.525l-2.567,2.037-2.561-2.037V2.592a2.567,2.567,0,0,1,5.128,0Z" transform="translate(-3.692 -0.025)" fill="#ffe356"/>
  <path id="Path_481" data-name="Path 481" d="M54.9,36.129H32.679a1.715,1.715,0,0,0-1.71,1.71v3.419a1.715,1.715,0,0,0,1.71,1.709h.855l1.385,13.178a3.427,3.427,0,0,0,3.4,3.064H49.263a3.425,3.425,0,0,0,3.4-3.064l1.385-13.178H54.9a1.714,1.714,0,0,0,1.709-1.709V37.839a1.715,1.715,0,0,0-1.709-1.71Z" transform="translate(-7.063 -6.21)" fill="#9fc98a"/>
  <path id="Path_482" data-name="Path 482" d="M39.193,56.145,37.806,42.967h-.855a1.715,1.715,0,0,1-1.71-1.709V37.839a1.715,1.715,0,0,1,1.71-1.71H32.679a1.715,1.715,0,0,0-1.71,1.71v3.419a1.715,1.715,0,0,0,1.71,1.709h.855l1.385,13.178a3.427,3.427,0,0,0,3.4,3.064h4.272a3.427,3.427,0,0,1-3.4-3.064Z" transform="translate(-7.063 -6.21)" fill="#006d3a"/>
  <path id="Path_483" data-name="Path 483" d="M56.614,37.839v3.419A1.714,1.714,0,0,1,54.9,42.967H32.679a1.715,1.715,0,0,1-1.71-1.709V37.839a1.715,1.715,0,0,1,1.71-1.71H54.9a1.715,1.715,0,0,1,1.709,1.71Z" transform="translate(-7.063 -6.21)" fill="#655e67"/>
  <path id="Path_484" data-name="Path 484" d="M37.806,40.4h-.855a1.715,1.715,0,0,1-1.71-1.709V36.126H32.679a1.715,1.715,0,0,0-1.71,1.71v3.419a1.715,1.715,0,0,0,1.71,1.709H54.9a1.714,1.714,0,0,0,1.709-1.709V40.4Z" transform="translate(-7.063 -6.21)" fill="#544f56"/>
  <path id="Path_485" data-name="Path 485" d="M22.56,51.926a8.2,8.2,0,0,1-.828,4.163,19.357,19.357,0,0,1-3.419,1.47c-.564.18-1.129.331-1.71.462a19.3,19.3,0,0,1-3.419.461c-.282.009-.572.017-.855.017s-.573-.008-.855-.017a19.314,19.314,0,0,1-3.419-.461c-.58-.128-1.146-.282-1.71-.462a19.357,19.357,0,0,1-3.417-1.47C1.216,53.508,2.07,44.044,6.344,38.882V35.419A3.419,3.419,0,0,1,9.764,32h5.128a3.419,3.419,0,0,1,3.419,3.42v3.461C21.235,42.412,22.56,47.943,22.56,51.926Z" transform="translate(-2.101 -5.501)" fill="#ecf0f1"/>
  <path id="Path_486" data-name="Path 486" d="M10.547,38.882V35.064A3.967,3.967,0,0,1,12.009,32H9.766a3.418,3.418,0,0,0-3.42,3.419v3.462C2.072,44.044,1.218,53.508,2.928,56.089A19.528,19.528,0,0,0,5.887,57.4C4.941,53.062,6.281,44.033,10.547,38.882Z" transform="translate(-2.101 -5.501)" fill="#c7bdc0"/>
  <path id="Path_487" data-name="Path 487" d="M19.195,35.419v3.462H7.227V35.419A3.419,3.419,0,0,1,10.648,32h5.128a3.419,3.419,0,0,1,3.419,3.42Z" transform="translate(-2.982 -5.501)" fill="#9fc98a"/>
  <path id="Path_488" data-name="Path 488" d="M12.355,37.129a1.711,1.711,0,0,1-1.71-1.71V33.667A3.38,3.38,0,0,1,11.1,32h-.449a3.42,3.42,0,0,0-3.42,3.419v3.462H19.195V37.129Z" transform="translate(-2.982 -5.501)" fill="#006d3a"/>
  <path id="Path_489" data-name="Path 489" d="M13.919,22.226V0a2.561,2.561,0,0,0-2.562,2.567V26.5h5.128V23.932h-.856a1.709,1.709,0,0,1-1.71-1.707Z" transform="translate(-3.692 0)" fill="#ebcf3f"/>
  <path id="Path_490" data-name="Path 490" d="M14.063,56.6v5.962c-.282.009-.572.017-.855.017s-.573-.008-.855-.017V56.6a.855.855,0,1,1,1.709,0Zm5.129,0V61.64c-.564.18-1.129.331-1.71.462V56.6a.855.855,0,0,1,1.71,0Zm-10.258,0V62.1c-.58-.128-1.146-.282-1.71-.462V56.6a.855.855,0,0,1,1.71,0Z" transform="translate(-2.982 -9.582)" fill="#655e67"/>
</svg>
